# xmcd
#
# Track frame offsets: 
#        150
#        15770
#        31581
#        44609
#        57381
#        69246
#        83165
#        98838
#        114384
#        129098
#        145299
#        159660
#        175810
#        188052
#        202969
#        216740
#        231024
#        246386
#        261227
#        276255
#
# Disc length: 3917 seconds
#
# Revision: 1
# Processed by: cddbd v1.5.2PL0 Copyright (c) Steve Scherf et al.
# Submitted via: ExactAudioCopyFreeDBPlugin 1.0
#
DISCID=160f4b14
DTITLE=WILLY SOMMERS - Het Erfgoed Van Willy Sommers - CD 2 - Het Best
DTITLE=e
DYEAR=2016
DGENRE=Chanson
TTITLE0=Jij  bent een engel  (2016)
TTITLE1=Laat de zon in je hart  (2006)
TTITLE2=Arrivederci Maria  (2015)
TTITLE3=Liefdesverdriet doet zo'n pijn  (2015)
TTITLE4=Sandy  (2015)
TTITLE5=Een wonder van een vrouw  (2010)
TTITLE6=Liefste  (2015)
TTITLE7=Vogelvrij  (2010)
TTITLE8=Dromen van verre stranden  (2012)
TTITLE9=Een mooie toekomst  (2015)
TTITLE10=Stapelgek  (2014)
TTITLE11=Que sera  (2013)
TTITLE12=Jij bent de mooiste  (2013)
TTITLE13=Kijk eens diep in mijn ogen [met Wendy Van Wanten]  (1991)
TTITLE14=Achter de wolken schijnt altijd de zon  (2013)
TTITLE15=Liefde voor altijd  (2011)
TTITLE16=Ruis op de lijn [met Lisa Del Bo and Luc Steeno]  (2003)
TTITLE17=Jij bent zo mooi [met De Romeo's]  (2014)
TTITLE18=Het water is veel te diep  (1989)
TTITLE19=Als een leeuw in een kooi  (1989)
EXTD=
EXTT0=
EXTT1=
EXTT2=
EXTT3=
EXTT4=
EXTT5=
EXTT6=
EXTT7=
EXTT8=
EXTT9=
EXTT10=
EXTT11=
EXTT12=
EXTT13=
EXTT14=
EXTT15=
EXTT16=
EXTT17=
EXTT18=
EXTT19=
PLAYORDER=
